<svg xmlns="http://www.w3.org/2000/svg" width="860" height="560" viewBox="0 0 860 560" role="img" aria-label="任务详情 / 待确认"><title>detail / 任务详情 / 待确认</title><desc>设计补齐。较长内容使用独立工作窗口；常驻胶囊体积保持稳定。</desc><style>text{font-family:'SpringCat Sans','Noto Sans SC','PingFang SC','Microsoft YaHei',sans-serif}</style><rect x="0" y="0" width="860" height="560" rx="16" fill="#181A1D" stroke="#383D45"/><rect x="0" y="0" width="165" height="560" rx="8" fill="#23262B" stroke="none"/><rect x="145" y="0" width="20" height="560" rx="0" fill="#23262B" stroke="none"/><circle cx="19" cy="21" r="4" fill="#D7867E"/><circle cx="33" cy="21" r="4" fill="#D6B578"/><circle cx="47" cy="21" r="4" fill="#85B69A"/><g transform="translate(22 51) scale(0.75)" aria-label="SpringCat 状态标识"><path d="M6 13V26M16 5V26M26 10V26" stroke="#F1F2F4" stroke-width="3" fill="none"/></g><text x="58" y="70" font-size="15" font-weight="500" fill="#F1F2F4" text-anchor="start">SpringCat</text><rect x="12" y="84" width="140" height="33" rx="8" fill="#181A1D" stroke="none"/><text x="24" y="105" font-size="12" font-weight="500" fill="#F1F2F4" text-anchor="start">动态</text><text x="24" y="145" font-size="12" font-weight="400" fill="#A2AAB5" text-anchor="start">任务历史</text><text x="24" y="185" font-size="12" font-weight="400" fill="#A2AAB5" text-anchor="start">用量与回顾</text><text x="24" y="225" font-size="12" font-weight="400" fill="#A2AAB5" text-anchor="start">AI 工具</text><text x="24" y="265" font-size="12" font-weight="400" fill="#A2AAB5" text-anchor="start">外观与停靠</text><text x="24" y="305" font-size="12" font-weight="400" fill="#A2AAB5" text-anchor="start">通知与专注</text><text x="24" y="345" font-size="12" font-weight="400" fill="#A2AAB5" text-anchor="start">常规与存储</text><text x="24" y="533" font-size="11" font-weight="400" fill="#A2AAB5" text-anchor="start">本地优先 · 设计提案</text><text x="196" y="59" font-size="25" font-weight="500" fill="#F1F2F4" text-anchor="start">任务详情 / 待确认</text><text x="830" y="29" font-size="13" font-weight="400" fill="#A2AAB5" text-anchor="end">−    ×</text><text x="196" y="102" font-size="12" font-weight="400" fill="#A2AAB5" text-anchor="start">‹ 返回动态</text><rect x="196" y="125" width="88" height="24" rx="4" fill="#23262B" stroke="none"/><text x="240" y="141" font-size="11" font-weight="500" fill="#D9B779" text-anchor="middle">等待确认</text><text x="196" y="191" font-size="27" font-weight="500" fill="#F1F2F4" text-anchor="start">重构设置页</text><text x="196" y="219" font-size="13" font-weight="400" fill="#A2AAB5" text-anchor="start">Codex · SpringCat 项目 · 14:28</text><rect x="196" y="249" width="634" height="125" rx="8" fill="#23262B" stroke="none"/><text x="218" y="281" font-size="14" font-weight="400" fill="#F1F2F4" text-anchor="start">已完成界面结构整理。</text><text x="218" y="308" font-size="14" font-weight="400" fill="#F1F2F4" text-anchor="start">下一步需要你回到 Codex 查看具体请求。</text><text x="218" y="335" font-size="14" font-weight="400" fill="#F1F2F4" text-anchor="start">SpringCat 仅展示任务状态与有限摘要。</text><rect x="196" y="401" width="148" height="28" rx="6" fill="#23262B" stroke="none"/><text x="270" y="420" font-size="13" font-weight="500" fill="#90B4E8" text-anchor="middle">返回原对话</text><rect x="358" y="401" width="100" height="28" rx="6" fill="#23262B" stroke="none"/><text x="408" y="420" font-size="13" font-weight="500" fill="#F1F2F4" text-anchor="middle">标为已读</text><text x="196" y="471" font-size="12" font-weight="400" fill="#A2AAB5" text-anchor="start">摘要不包含完整对话、推理或工具参数。</text></svg>