<svg xmlns="http://www.w3.org/2000/svg" width="860" height="560" viewBox="0 0 860 560" role="img" aria-label="任务历史与筛选"><title>history / 任务历史与筛选</title><desc>设计补齐。较长内容使用独立工作窗口；常驻胶囊体积保持稳定。</desc><style>text{font-family:'SpringCat Sans','Noto Sans SC','PingFang SC','Microsoft YaHei',sans-serif}</style><rect x="0" y="0" width="860" height="560" rx="16" fill="#181A1D" stroke="#383D45"/><rect x="0" y="0" width="165" height="560" rx="8" fill="#23262B" stroke="none"/><rect x="145" y="0" width="20" height="560" rx="0" fill="#23262B" stroke="none"/><circle cx="19" cy="21" r="4" fill="#D7867E"/><circle cx="33" cy="21" r="4" fill="#D6B578"/><circle cx="47" cy="21" r="4" fill="#85B69A"/><g transform="translate(22 51) scale(0.75)" aria-label="SpringCat 状态标识"><path d="M6 13V26M16 5V26M26 10V26" stroke="#F1F2F4" stroke-width="3" fill="none"/></g><text x="58" y="70" font-size="15" font-weight="500" fill="#F1F2F4" text-anchor="start">SpringCat</text><text x="24" y="105" font-size="12" font-weight="400" fill="#A2AAB5" text-anchor="start">动态</text><rect x="12" y="124" width="140" height="33" rx="8" fill="#181A1D" stroke="none"/><text x="24" y="145" font-size="12" font-weight="500" fill="#F1F2F4" text-anchor="start">任务历史</text><text x="24" y="185" font-size="12" font-weight="400" fill="#A2AAB5" text-anchor="start">用量与回顾</text><text x="24" y="225" font-size="12" font-weight="400" fill="#A2AAB5" text-anchor="start">AI 工具</text><text x="24" y="265" font-size="12" font-weight="400" fill="#A2AAB5" text-anchor="start">外观与停靠</text><text x="24" y="305" font-size="12" font-weight="400" fill="#A2AAB5" text-anchor="start">通知与专注</text><text x="24" y="345" font-size="12" font-weight="400" fill="#A2AAB5" text-anchor="start">常规与存储</text><text x="24" y="533" font-size="11" font-weight="400" fill="#A2AAB5" text-anchor="start">本地优先 · 设计提案</text><text x="196" y="59" font-size="25" font-weight="500" fill="#F1F2F4" text-anchor="start">任务历史与筛选</text><text x="830" y="29" font-size="13" font-weight="400" fill="#A2AAB5" text-anchor="end">−    ×</text><rect x="196" y="92" width="634" height="38" rx="8" fill="#23262B" stroke="none"/><text x="210" y="117" font-size="13" font-weight="400" fill="#A2AAB5" text-anchor="start">搜索任务标题、来源或项目</text><rect x="196" y="144" width="65" height="24" rx="4" fill="#23262B" stroke="none"/><text x="228.5" y="160" font-size="11" font-weight="500" fill="#F1F2F4" text-anchor="middle">全部</text><rect x="271" y="144" width="72" height="24" rx="4" fill="#23262B" stroke="none"/><text x="307" y="160" font-size="11" font-weight="500" fill="#A2AAB5" text-anchor="middle">待处理</text><rect x="353" y="144" width="72" height="24" rx="4" fill="#23262B" stroke="none"/><text x="389" y="160" font-size="11" font-weight="500" fill="#A2AAB5" text-anchor="middle">已完成</text><text x="196" y="203" font-size="13" font-weight="400" fill="#A2AAB5" text-anchor="start">今天 · 9 月 16 日</text><g transform="translate(211 250) scale(0.8333333333333334)" fill="#A2AAB5" color="#A2AAB5" fill-rule="evenodd" aria-label="Codex">
  <path clip-rule="evenodd" d="M8.086.457a6.105 6.105 0 0 1 3.046-.415c1.333.153 2.521.72 3.564 1.7a.117.117 0 0 0 .107.029c1.408-.346 2.762-.224 4.061.366l.063.03.154.076c1.357.703 2.33 1.77 2.918 3.198.278.679.418 1.388.421 2.126a5.655 5.655 0 0 1-.18 1.631.167.167 0 0 0 .04.155 5.982 5.982 0 0 1 1.578 2.891c.385 1.901-.01 3.615-1.183 5.14l-.182.22a6.063 6.063 0 0 1-2.934 1.851.162.162 0 0 0-.108.102c-.255.736-.511 1.364-.987 1.992-1.199 1.582-2.962 2.462-4.948 2.451-1.583-.008-2.986-.587-4.21-1.736a.145.145 0 0 0-.14-.032c-.518.167-1.04.191-1.604.185a5.924 5.924 0 0 1-2.595-.622 6.058 6.058 0 0 1-2.146-1.781c-.203-.269-.404-.522-.551-.821a7.74 7.74 0 0 1-.495-1.283 6.11 6.11 0 0 1-.017-3.064.166.166 0 0 0 .008-.074.115.115 0 0 0-.037-.064 5.958 5.958 0 0 1-1.38-2.202 5.196 5.196 0 0 1-.333-1.589 6.915 6.915 0 0 1 .188-2.132c.45-1.484 1.309-2.648 2.577-3.493.282-.188.55-.334.802-.438.286-.12.573-.22.861-.304a.129.129 0 0 0 .087-.087A6.016 6.016 0 0 1 5.635 2.31C6.315 1.464 7.132.846 8.086.457Zm-.804 7.85a.848.848 0 0 0-1.473.842l1.694 2.965-1.688 2.848a.849.849 0 0 0 1.46.864l1.94-3.272a.849.849 0 0 0 .007-.854l-1.94-3.393Zm5.446 6.24a.849.849 0 0 0 0 1.695h4.848a.849.849 0 0 0 0-1.696h-4.848Z"/>
</g><text x="245" y="253" font-size="15" font-weight="500" fill="#F1F2F4" text-anchor="start">重构设置页交互</text><text x="245" y="275" font-size="13" font-weight="400" fill="#A2AAB5" text-anchor="start">Codex · SpringCat 项目</text><circle cx="760" cy="259" r="2" fill="#D9B779"/><text x="811" y="264" font-size="13" font-weight="400" fill="#A2AAB5" text-anchor="end">待确认</text><path d="M196 291H830V291" stroke="#383D45" fill="none"/><g transform="translate(211 314) scale(0.8333333333333334)" fill="#A2AAB5" color="#A2AAB5" fill-rule="evenodd" aria-label="Cursor">
  <path d="M22.106 5.68 12.5.135a.998.998 0 0 0-.998 0L1.893 5.68a.84.84 0 0 0-.419.726v11.186c0 .3.16.577.42.727l9.607 5.547a.999.999 0 0 0 .998 0l9.608-5.547a.84.84 0 0 0 .42-.727V6.407a.84.84 0 0 0-.42-.726Zm-.603 1.176L12.228 22.92c-.063.108-.228.064-.228-.061V12.34a.59.59 0 0 0-.295-.51l-9.11-5.26c-.107-.062-.063-.228.062-.228h18.55c.264 0 .428.286.296.514Z"/>
</g><text x="245" y="317" font-size="15" font-weight="500" fill="#F1F2F4" text-anchor="start">整理用户访谈</text><text x="245" y="339" font-size="13" font-weight="400" fill="#A2AAB5" text-anchor="start">Cursor · SpringCat 项目</text><circle cx="760" cy="323" r="3" fill="#A6BFE3" opacity=".22" style="filter:blur(1px)"/><circle cx="760" cy="323" r="2" fill="#A6BFE3"/><text x="811" y="328" font-size="13" font-weight="400" fill="#A2AAB5" text-anchor="end">进行中</text><path d="M196 355H830V355" stroke="#383D45" fill="none"/><g transform="translate(211 378) scale(0.8333333333333334)" fill="#A2AAB5" color="#A2AAB5" fill-rule="evenodd" aria-label="Gemini CLI"><title>Gemini CLI</title><path d="M16.793 10.358v3.867L7.236 18.82v-2.8l7.751-3.728-7.75-3.728V5.763l9.556 4.595z"></path><path clip-rule="evenodd" d="M19.608 0A4.392 4.392 0 0124 4.392v15.216A4.392 4.392 0 0119.608 24H4.392A4.392 4.392 0 010 19.608V4.392A4.392 4.392 0 014.392 0h15.216zM4.26 1.444A2.816 2.816 0 001.444 4.26v15.48a2.816 2.816 0 002.816 2.816h15.48a2.816 2.816 0 002.816-2.816V4.26a2.816 2.816 0 00-2.816-2.816H4.26z"></path></g><text x="245" y="381" font-size="15" font-weight="500" fill="#F1F2F4" text-anchor="start">设计交接文档</text><text x="245" y="403" font-size="13" font-weight="400" fill="#A2AAB5" text-anchor="start">Gemini CLI · SpringCat 项目</text><circle cx="760" cy="387" r="2" fill="#D9B779"/><text x="811" y="392" font-size="13" font-weight="400" fill="#A2AAB5" text-anchor="end">待确认</text><path d="M196 419H830V419" stroke="#383D45" fill="none"/><g transform="translate(211 442) scale(0.8333333333333334)" fill="#A2AAB5" color="#A2AAB5" fill-rule="evenodd" aria-label="Codex">
  <path clip-rule="evenodd" d="M8.086.457a6.105 6.105 0 0 1 3.046-.415c1.333.153 2.521.72 3.564 1.7a.117.117 0 0 0 .107.029c1.408-.346 2.762-.224 4.061.366l.063.03.154.076c1.357.703 2.33 1.77 2.918 3.198.278.679.418 1.388.421 2.126a5.655 5.655 0 0 1-.18 1.631.167.167 0 0 0 .04.155 5.982 5.982 0 0 1 1.578 2.891c.385 1.901-.01 3.615-1.183 5.14l-.182.22a6.063 6.063 0 0 1-2.934 1.851.162.162 0 0 0-.108.102c-.255.736-.511 1.364-.987 1.992-1.199 1.582-2.962 2.462-4.948 2.451-1.583-.008-2.986-.587-4.21-1.736a.145.145 0 0 0-.14-.032c-.518.167-1.04.191-1.604.185a5.924 5.924 0 0 1-2.595-.622 6.058 6.058 0 0 1-2.146-1.781c-.203-.269-.404-.522-.551-.821a7.74 7.74 0 0 1-.495-1.283 6.11 6.11 0 0 1-.017-3.064.166.166 0 0 0 .008-.074.115.115 0 0 0-.037-.064 5.958 5.958 0 0 1-1.38-2.202 5.196 5.196 0 0 1-.333-1.589 6.915 6.915 0 0 1 .188-2.132c.45-1.484 1.309-2.648 2.577-3.493.282-.188.55-.334.802-.438.286-.12.573-.22.861-.304a.129.129 0 0 0 .087-.087A6.016 6.016 0 0 1 5.635 2.31C6.315 1.464 7.132.846 8.086.457Zm-.804 7.85a.848.848 0 0 0-1.473.842l1.694 2.965-1.688 2.848a.849.849 0 0 0 1.46.864l1.94-3.272a.849.849 0 0 0 .007-.854l-1.94-3.393Zm5.446 6.24a.849.849 0 0 0 0 1.695h4.848a.849.849 0 0 0 0-1.696h-4.848Z"/>
</g><text x="245" y="445" font-size="15" font-weight="500" fill="#F1F2F4" text-anchor="start">检查接口变更</text><text x="245" y="467" font-size="13" font-weight="400" fill="#A2AAB5" text-anchor="start">Codex · SpringCat 项目</text><circle cx="760" cy="451" r="2" fill="#D9B779"/><text x="811" y="456" font-size="13" font-weight="400" fill="#A2AAB5" text-anchor="end">待确认</text><path d="M196 483H830V483" stroke="#383D45" fill="none"/><g transform="translate(211 506) scale(0.8333333333333334)" fill="#A2AAB5" color="#A2AAB5" fill-rule="evenodd" aria-label="Cursor">
  <path d="M22.106 5.68 12.5.135a.998.998 0 0 0-.998 0L1.893 5.68a.84.84 0 0 0-.419.726v11.186c0 .3.16.577.42.727l9.607 5.547a.999.999 0 0 0 .998 0l9.608-5.547a.84.84 0 0 0 .42-.727V6.407a.84.84 0 0 0-.42-.726Zm-.603 1.176L12.228 22.92c-.063.108-.228.064-.228-.061V12.34a.59.59 0 0 0-.295-.51l-9.11-5.26c-.107-.062-.063-.228.062-.228h18.55c.264 0 .428.286.296.514Z"/>
</g><text x="245" y="509" font-size="15" font-weight="500" fill="#F1F2F4" text-anchor="start">补充交互测试</text><text x="245" y="531" font-size="13" font-weight="400" fill="#A2AAB5" text-anchor="start">Cursor · SpringCat 项目</text><circle cx="760" cy="515" r="2" fill="#9CBCA9"/><text x="811" y="520" font-size="13" font-weight="400" fill="#A2AAB5" text-anchor="end">已完成</text></svg>