<svg xmlns="http://www.w3.org/2000/svg" width="720" height="510" viewBox="0 0 720 510" role="img" aria-label="欢迎与价值"><title>onboard-0 / 欢迎与价值</title><desc>设计补齐。当前版本没有首次使用向导，这组是新增设计。</desc><style>text{font-family:'SpringCat Sans','Noto Sans SC','PingFang SC','Microsoft YaHei',sans-serif}</style><rect x="0" y="0" width="720" height="510" rx="18" fill="#181A1D" stroke="#383D45"/><g transform="translate(38 32) scale(1)" aria-label="SpringCat 状态标识"><path d="M6 13V26M16 5V26M26 10V26" stroke="#F1F2F4" stroke-width="3" fill="none"/></g><text x="83" y="56" font-size="19" font-weight="500" fill="#F1F2F4" text-anchor="start">SpringCat</text><text x="677" y="53" font-size="12" font-weight="400" fill="#A2AAB5" text-anchor="end">跳过</text><circle cx="55" cy="101" r="11" fill="#90B4E8"/><text x="55" y="105" font-size="11" font-weight="500" fill="#181A1D" text-anchor="middle">1</text><text x="75" y="106" font-size="12" font-weight="400" fill="#F1F2F4" text-anchor="start">认识 SpringCat</text><circle cx="229" cy="101" r="11" fill="#23262B"/><text x="229" y="105" font-size="11" font-weight="500" fill="#A2AAB5" text-anchor="middle">2</text><text x="249" y="106" font-size="12" font-weight="400" fill="#A2AAB5" text-anchor="start">选择位置</text><circle cx="403" cy="101" r="11" fill="#23262B"/><text x="403" y="105" font-size="11" font-weight="500" fill="#A2AAB5" text-anchor="middle">3</text><text x="423" y="106" font-size="12" font-weight="400" fill="#A2AAB5" text-anchor="start">连接工具</text><circle cx="577" cy="101" r="11" fill="#23262B"/><text x="577" y="105" font-size="11" font-weight="500" fill="#A2AAB5" text-anchor="middle">4</text><text x="597" y="106" font-size="12" font-weight="400" fill="#A2AAB5" text-anchor="start">测试提醒</text><text x="48" y="191" font-size="28" font-weight="500" fill="#F1F2F4" text-anchor="start">统一查看 AI 任务状态</text><text x="48" y="239" font-size="15" font-weight="400" fill="#A2AAB5" text-anchor="start">连接常用的 AI 工具。</text><text x="48" y="269" font-size="15" font-weight="400" fill="#A2AAB5" text-anchor="start">集中查看运行、待确认与异常状态。</text><rect x="48" y="321" width="265" height="42" rx="21" fill="#181A1D" stroke="none"/><g aria-label="Cursor · 暂无进行中"><circle cx="70" cy="342" r="14" fill="#23262B"/><circle cx="70" cy="342" r="14" fill="none" stroke="#383D45" stroke-width="1"/><g transform="translate(62 334) scale(0.6666666666666666)" fill="#F1F2F4" color="#F1F2F4" fill-rule="evenodd" aria-label="Cursor">
  <path d="M22.106 5.68 12.5.135a.998.998 0 0 0-.998 0L1.893 5.68a.84.84 0 0 0-.419.726v11.186c0 .3.16.577.42.727l9.607 5.547a.999.999 0 0 0 .998 0l9.608-5.547a.84.84 0 0 0 .42-.727V6.407a.84.84 0 0 0-.42-.726Zm-.603 1.176L12.228 22.92c-.063.108-.228.064-.228-.061V12.34a.59.59 0 0 0-.295-.51l-9.11-5.26c-.107-.062-.063-.228.062-.228h18.55c.264 0 .428.286.296.514Z"/>
</g></g><text x="96" y="346" font-size="12" font-weight="500" fill="#F1F2F4" text-anchor="start">Cursor · 暂无进行中</text><path d="M38 437H682V437" stroke="#383D45" fill="none"/><text x="48" y="473" font-size="12" font-weight="400" fill="#A2AAB5" text-anchor="start">首次使用向导 · 新增设计</text><rect x="559" y="450" width="112" height="28" rx="6" fill="#23262B" stroke="none"/><text x="615" y="469" font-size="13" font-weight="500" fill="#90B4E8" text-anchor="middle">继续</text></svg>