<svg xmlns="http://www.w3.org/2000/svg" width="860" height="620" viewBox="0 0 860 620" role="img" aria-label="外观与停靠"><title>settings-appearance / 外观与停靠</title><desc>设计补齐。hook 工具和只读监听工具的配置路径不同；保留原有第三方配置。</desc><style>text{font-family:'SpringCat Sans','Noto Sans SC','PingFang SC','Microsoft YaHei',sans-serif}</style><rect x="0" y="0" width="860" height="620" rx="16" fill="#19212B" stroke="#3B4A5C"/><rect x="0" y="0" width="165" height="620" rx="8" fill="#232E3B" stroke="none"/><rect x="145" y="0" width="20" height="620" rx="0" fill="#232E3B" stroke="none"/><circle cx="19" cy="21" r="4" fill="#D7867E"/><circle cx="33" cy="21" r="4" fill="#D6B578"/><circle cx="47" cy="21" r="4" fill="#85B69A"/><g transform="translate(22 51) scale(0.75)" aria-label="SpringCat 状态标识"><path d="M6 13V26M16 5V26M26 10V26" stroke="#EFF3F7" stroke-width="3" fill="none"/></g><text x="58" y="70" font-size="15" font-weight="500" fill="#EFF3F7" text-anchor="start">SpringCat</text><text x="24" y="105" font-size="12" font-weight="400" fill="#A5B2C2" text-anchor="start">动态</text><text x="24" y="145" font-size="12" font-weight="400" fill="#A5B2C2" text-anchor="start">任务历史</text><text x="24" y="185" font-size="12" font-weight="400" fill="#A5B2C2" text-anchor="start">用量与回顾</text><text x="24" y="225" font-size="12" font-weight="400" fill="#A5B2C2" text-anchor="start">AI 工具</text><rect x="12" y="244" width="140" height="33" rx="8" fill="#19212B" stroke="none"/><text x="24" y="265" font-size="12" font-weight="500" fill="#EFF3F7" text-anchor="start">外观与停靠</text><text x="24" y="305" font-size="12" font-weight="400" fill="#A5B2C2" text-anchor="start">通知与专注</text><text x="24" y="345" font-size="12" font-weight="400" fill="#A5B2C2" text-anchor="start">常规与存储</text><text x="24" y="593" font-size="11" font-weight="400" fill="#A5B2C2" text-anchor="start">本地优先 · 设计提案</text><text x="196" y="59" font-size="25" font-weight="500" fill="#EFF3F7" text-anchor="start">外观与停靠</text><text x="830" y="29" font-size="13" font-weight="400" fill="#A5B2C2" text-anchor="end">−    ×</text><text x="196" y="99" font-size="15" font-weight="500" fill="#EFF3F7" text-anchor="start">主题</text><rect x="196" y="117" width="197" height="90" rx="6" fill="#181A1D" stroke="#3B4A5C"/><text x="212" y="180" font-size="12" font-weight="400" fill="#F1F2F4" text-anchor="start">深墨</text><rect x="210" y="129" width="85" height="21" rx="4" fill="#23262B" stroke="none"/><rect x="409" y="117" width="197" height="90" rx="6" fill="#FAFBFC" stroke="#3B4A5C"/><text x="425" y="180" font-size="12" font-weight="400" fill="#20252C" text-anchor="start">纸白</text><rect x="423" y="129" width="85" height="21" rx="4" fill="#F0F2F5" stroke="none"/><rect x="622" y="117" width="197" height="90" rx="6" fill="#19212B" stroke="#3B4A5C"/><text x="638" y="180" font-size="12" font-weight="400" fill="#EFF3F7" text-anchor="start">深海灰</text><rect x="636" y="129" width="85" height="21" rx="4" fill="#232E3B" stroke="none"/><text x="196" y="266" font-size="14" font-weight="500" fill="#EFF3F7" text-anchor="start">停靠位置</text><text x="196" y="289" font-size="12" font-weight="400" fill="#A5B2C2" text-anchor="start">顶部优先；支持左右侧边与拖动。</text><text x="830" y="275" font-size="13" font-weight="400" fill="#A5B2C2" text-anchor="end">顶部居中  ›</text><path d="M196 311H830V311" stroke="#3B4A5C" fill="none"/><text x="196" y="338" font-size="14" font-weight="500" fill="#EFF3F7" text-anchor="start">适配 Mac 刘海</text><text x="196" y="361" font-size="12" font-weight="400" fill="#A5B2C2" text-anchor="start">检测当前屏幕可显示区域。</text><rect x="795" y="327" width="34" height="20" rx="10" fill="#94B5E0" stroke="none"/><circle cx="819" cy="337" r="7" fill="#19212B"/><path d="M196 383H830V383" stroke="#3B4A5C" fill="none"/><text x="196" y="410" font-size="14" font-weight="500" fill="#EFF3F7" text-anchor="start">减少动态效果</text><text x="196" y="433" font-size="12" font-weight="400" fill="#A5B2C2" text-anchor="start">关闭空间运动，保留状态反馈。</text><rect x="795" y="399" width="34" height="20" rx="10" fill="#3B4A5C" stroke="none"/><circle cx="805" cy="409" r="7" fill="#A5B2C2"/><path d="M196 455H830V455" stroke="#3B4A5C" fill="none"/><text x="196" y="482" font-size="14" font-weight="500" fill="#EFF3F7" text-anchor="start">显示密度</text><text x="196" y="505" font-size="12" font-weight="400" fill="#A5B2C2" text-anchor="start">尺寸跟随系统缩放，不缩小主要命中区域。</text><text x="830" y="491" font-size="13" font-weight="400" fill="#A5B2C2" text-anchor="end">标准  ›</text><path d="M196 527H830V527" stroke="#3B4A5C" fill="none"/><text x="196" y="585" font-size="12" font-weight="400" fill="#A5B2C2" text-anchor="start">主题、动态效果与密度为新增设计。</text></svg>