<svg xmlns="http://www.w3.org/2000/svg" width="440" height="250" viewBox="0 0 440 250" role="img" aria-label="尚未连接工具"><title>status-disconnected / 尚未连接工具</title><desc>已有能力 / 新样式。列表中所有状态同级；紧凑入口的状态汇总与列表排序分离。当前代码的紧凑主状态为运行优先。</desc><style>text{font-family:'SpringCat Sans','Noto Sans SC','PingFang SC','Microsoft YaHei',sans-serif}</style><rect x="0" y="0" width="440" height="250" rx="0" fill="#DEE4EA" stroke="none"/><text x="24" y="35" font-size="17" font-weight="500" fill="#344250" text-anchor="start">尚未连接工具</text><rect x="24" y="65" width="42" height="42" rx="21" fill="#19212B" stroke="none"/><g aria-label="Cursor · 暂无进行中"><circle cx="45" cy="86" r="14" fill="#232E3B"/><circle cx="45" cy="86" r="14" fill="none" stroke="#3B4A5C" stroke-width="1"/><g transform="translate(37 78) scale(0.6666666666666666)" fill="#EFF3F7" color="#EFF3F7" fill-rule="evenodd" aria-label="Cursor">
  <path d="M22.106 5.68 12.5.135a.998.998 0 0 0-.998 0L1.893 5.68a.84.84 0 0 0-.419.726v11.186c0 .3.16.577.42.727l9.607 5.547a.999.999 0 0 0 .998 0l9.608-5.547a.84.84 0 0 0 .42-.727V6.407a.84.84 0 0 0-.42-.726Zm-.603 1.176L12.228 22.92c-.063.108-.228.064-.228-.061V12.34a.59.59 0 0 0-.295-.51l-9.11-5.26c-.107-.062-.063-.228.062-.228h18.55c.264 0 .428.286.296.514Z"/>
</g></g><rect x="84" y="65" width="330" height="42" rx="21" fill="#19212B" stroke="none"/><g aria-label="Cursor · 暂无进行中"><circle cx="106" cy="86" r="14" fill="#232E3B"/><circle cx="106" cy="86" r="14" fill="none" stroke="#3B4A5C" stroke-width="1"/><g transform="translate(98 78) scale(0.6666666666666666)" fill="#EFF3F7" color="#EFF3F7" fill-rule="evenodd" aria-label="Cursor">
  <path d="M22.106 5.68 12.5.135a.998.998 0 0 0-.998 0L1.893 5.68a.84.84 0 0 0-.419.726v11.186c0 .3.16.577.42.727l9.607 5.547a.999.999 0 0 0 .998 0l9.608-5.547a.84.84 0 0 0 .42-.727V6.407a.84.84 0 0 0-.42-.726Zm-.603 1.176L12.228 22.92c-.063.108-.228.064-.228-.061V12.34a.59.59 0 0 0-.295-.51l-9.11-5.26c-.107-.062-.063-.228.062-.228h18.55c.264 0 .428.286.296.514Z"/>
</g></g><text x="132" y="90" font-size="12" font-weight="500" fill="#EFF3F7" text-anchor="start">Cursor · 暂无进行中</text><text x="26" y="157" font-size="13" font-weight="400" fill="#536171" text-anchor="start">明确尚未连接工具。</text><text x="26" y="182" font-size="13" font-weight="400" fill="#536171" text-anchor="start">唯一主操作：连接第一个工具。</text><text x="26" y="222" font-size="11" font-weight="400" fill="#637284" text-anchor="start">颜色 + 文案同时表达状态</text></svg>