<svg xmlns="http://www.w3.org/2000/svg" width="800" height="500" viewBox="0 0 800 500" role="img" aria-label="颜色与状态语义"><title>style-tokens / 颜色与状态语义</title><desc>设计规范。按下、悬停、焦点、禁用和错误分别可识别。</desc><style>text{font-family:'SpringCat Sans','Noto Sans SC','PingFang SC','Microsoft YaHei',sans-serif}</style><rect x="0" y="0" width="800" height="500" rx="0" fill="#E4E7EB" stroke="none"/><text x="30" y="41" font-size="22" font-weight="500" fill="#344250" text-anchor="start">颜色与状态语义</text><rect x="30" y="83" width="126" height="71" rx="8" fill="#181A1D" stroke="#383D45"/><text x="30" y="179" font-size="12" font-weight="500" fill="#425262" text-anchor="start">surface</text><text x="30" y="199" font-size="11" font-weight="400" fill="#667381" text-anchor="start">#181A1D</text><rect x="181" y="83" width="126" height="71" rx="8" fill="#23262B" stroke="#383D45"/><text x="181" y="179" font-size="12" font-weight="500" fill="#425262" text-anchor="start">raised</text><text x="181" y="199" font-size="11" font-weight="400" fill="#667381" text-anchor="start">#23262B</text><rect x="332" y="83" width="126" height="71" rx="8" fill="#F1F2F4" stroke="#383D45"/><text x="332" y="179" font-size="12" font-weight="500" fill="#425262" text-anchor="start">text</text><text x="332" y="199" font-size="11" font-weight="400" fill="#667381" text-anchor="start">#F1F2F4</text><rect x="483" y="83" width="126" height="71" rx="8" fill="#A2AAB5" stroke="#383D45"/><text x="483" y="179" font-size="12" font-weight="500" fill="#425262" text-anchor="start">muted</text><text x="483" y="199" font-size="11" font-weight="400" fill="#667381" text-anchor="start">#A2AAB5</text><rect x="634" y="83" width="126" height="71" rx="8" fill="#90B4E8" stroke="#383D45"/><text x="634" y="179" font-size="12" font-weight="500" fill="#425262" text-anchor="start">accent</text><text x="634" y="199" font-size="11" font-weight="400" fill="#667381" text-anchor="start">#90B4E8</text><rect x="30" y="224" width="126" height="71" rx="8" fill="#A6BFE3" stroke="#383D45"/><text x="30" y="320" font-size="12" font-weight="500" fill="#425262" text-anchor="start">working</text><text x="30" y="340" font-size="11" font-weight="400" fill="#667381" text-anchor="start">#A6BFE3</text><rect x="181" y="224" width="126" height="71" rx="8" fill="#D9B779" stroke="#383D45"/><text x="181" y="320" font-size="12" font-weight="500" fill="#425262" text-anchor="start">waiting</text><text x="181" y="340" font-size="11" font-weight="400" fill="#667381" text-anchor="start">#D9B779</text><rect x="332" y="224" width="126" height="71" rx="8" fill="#9CBCA9" stroke="#383D45"/><text x="332" y="320" font-size="12" font-weight="500" fill="#425262" text-anchor="start">completed</text><text x="332" y="340" font-size="11" font-weight="400" fill="#667381" text-anchor="start">#9CBCA9</text><rect x="483" y="224" width="126" height="71" rx="8" fill="#DB9698" stroke="#383D45"/><text x="483" y="320" font-size="12" font-weight="500" fill="#425262" text-anchor="start">failed</text><text x="483" y="340" font-size="11" font-weight="400" fill="#667381" text-anchor="start">#DB9698</text><text x="30" y="414" font-size="13" font-weight="400" fill="#536171" text-anchor="start">颜色始终搭配状态文案；正文与按钮采用足够对比度。</text><text x="30" y="438" font-size="13" font-weight="400" fill="#536171" text-anchor="start">Mac 刘海外壳保持黑色融合，内容区域遵循所选主题。</text></svg>