<svg xmlns="http://www.w3.org/2000/svg" width="900" height="640" viewBox="0 0 900 640" role="img" aria-label="用量 / 读取失败"><title>usage-error / 用量 / 读取失败</title><desc>已有能力 / 新样式。数据缺失不伪装为零用量。分享由用户主动操作。</desc><style>text{font-family:'SpringCat Sans','Noto Sans SC','PingFang SC','Microsoft YaHei',sans-serif}</style><rect x="0" y="0" width="900" height="640" rx="16" fill="#19212B" stroke="#3B4A5C"/><rect x="0" y="0" width="165" height="640" rx="8" fill="#232E3B" stroke="none"/><rect x="145" y="0" width="20" height="640" rx="0" fill="#232E3B" stroke="none"/><circle cx="19" cy="21" r="4" fill="#D7867E"/><circle cx="33" cy="21" r="4" fill="#D6B578"/><circle cx="47" cy="21" r="4" fill="#85B69A"/><g transform="translate(22 51) scale(0.75)" aria-label="SpringCat 状态标识"><path d="M6 13V26M16 5V26M26 10V26" stroke="#EFF3F7" stroke-width="3" fill="none"/></g><text x="58" y="70" font-size="15" font-weight="500" fill="#EFF3F7" text-anchor="start">SpringCat</text><text x="24" y="105" font-size="12" font-weight="400" fill="#A5B2C2" text-anchor="start">动态</text><text x="24" y="145" font-size="12" font-weight="400" fill="#A5B2C2" text-anchor="start">任务历史</text><rect x="12" y="164" width="140" height="33" rx="8" fill="#19212B" stroke="none"/><text x="24" y="185" font-size="12" font-weight="500" fill="#EFF3F7" text-anchor="start">用量与回顾</text><text x="24" y="225" font-size="12" font-weight="400" fill="#A5B2C2" text-anchor="start">AI 工具</text><text x="24" y="265" font-size="12" font-weight="400" fill="#A5B2C2" text-anchor="start">外观与停靠</text><text x="24" y="305" font-size="12" font-weight="400" fill="#A5B2C2" text-anchor="start">通知与专注</text><text x="24" y="345" font-size="12" font-weight="400" fill="#A5B2C2" text-anchor="start">常规与存储</text><text x="24" y="613" font-size="11" font-weight="400" fill="#A5B2C2" text-anchor="start">本地优先 · 设计提案</text><text x="196" y="59" font-size="25" font-weight="500" fill="#EFF3F7" text-anchor="start">用量 / 读取失败</text><text x="870" y="29" font-size="13" font-weight="400" fill="#A5B2C2" text-anchor="end">−    ×</text><rect x="195" y="89" width="52" height="24" rx="4" fill="#232E3B" stroke="none"/><text x="221" y="105" font-size="11" font-weight="500" fill="#EFF3F7" text-anchor="middle">日</text><rect x="257" y="89" width="52" height="24" rx="4" fill="#232E3B" stroke="none"/><text x="283" y="105" font-size="11" font-weight="500" fill="#A5B2C2" text-anchor="middle">周</text><rect x="319" y="89" width="52" height="24" rx="4" fill="#232E3B" stroke="none"/><text x="345" y="105" font-size="11" font-weight="500" fill="#A5B2C2" text-anchor="middle">月</text><text x="870" y="106" font-size="14" font-weight="400" fill="#A5B2C2" text-anchor="end">‹  9 月 16 日  ›</text><rect x="195" y="155" width="675" height="177" rx="14" fill="#232E3B" stroke="none"/><text x="217" y="196" font-size="24" font-weight="500" fill="#EFF3F7" text-anchor="start">暂时无法读取用量</text><text x="217" y="230" font-size="14" font-weight="400" fill="#A5B2C2" text-anchor="start">保留当前日期范围，重新读取即可继续。</text><rect x="217" y="264" width="115" height="28" rx="6" fill="#232E3B" stroke="none"/><text x="274.5" y="283" font-size="13" font-weight="500" fill="#94B5E0" text-anchor="middle">重新读取</text></svg>